<?xml version="1.0" encoding="UTF-8" standalone="no"?>
<!DOCTYPE svg PUBLIC "-//W3C//DTD SVG 1.1//EN" "http://www.w3.org/Graphics/SVG/1.1/DTD/svg11.dtd">
<svg width="100%" height="100%" viewBox="0 0 2363 591" version="1.1" xmlns="http://www.w3.org/2000/svg" xmlns:xlink="http://www.w3.org/1999/xlink" xml:space="preserve" xmlns:serif="http://www.serif.com/" style="fill-rule:evenodd;clip-rule:evenodd;stroke-linejoin:round;stroke-miterlimit:2;">
    <g transform="matrix(1,0,0,1,-2713.49,-3781.8)">
        <g id="Artboard2" transform="matrix(0.790302,0,0,0.489539,444.438,3840.63)">
            <rect x="2871.11" y="-120.178" width="2988.99" height="1206.34" style="fill:none;"/>
            <g id="HIVESOUND-Base-Yellow" serif:id="HIVESOUND Base Yellow" transform="matrix(1.26534,0,0,2.04274,2872.45,-1126.6)">
                <g transform="matrix(1,0,0,1,-82.0147,-28.6053)">
                    <text x="369.43px" y="921.484px" style="font-family:'CodecPro-Bold', 'Codec Pro';font-weight:500;font-size:300px;fill:rgb(255,226,0);">HIV</text>
                </g>
                <g id="E" transform="matrix(1.20223,0,0,1,-165.19,0)">
                    <g transform="matrix(1.00427,0,0,0.256379,399.937,494.805)">
                        <rect x="415.152" y="793.123" width="134.241" height="134.241" style="fill:rgb(255,226,0);"/>
                    </g>
                    <g transform="matrix(1.00427,0,0,0.256379,401.08,573.294)">
                        <rect x="415.152" y="793.123" width="134.241" height="134.241" style="fill:rgb(255,226,0);"/>
                    </g>
                    <g transform="matrix(1.00427,0,0,0.256379,402.11,651.014)">
                        <rect x="415.152" y="793.123" width="134.241" height="134.241" style="fill:rgb(255,226,0);"/>
                    </g>
                </g>
                <g transform="matrix(1,0,0,1,993.527,886.3)">
                    <text x="0px" y="0px" style="font-family:'CodecPro-Bold', 'Codec Pro';font-weight:500;font-size:300px;fill:rgb(255,226,0);">SOUND</text>
                </g>
            </g>
        </g>
    </g>
</svg>
